# xmcd
#
# Track frame offsets:
#	150
#	20425
#	39015
#	60347
#	81772
#	104392
#	125832
#	148492
#
# Disc length: 2234 seconds
#
# Revision: 0
# Processed by: cddbd v1.4PL0 Copyright (c) Steve Scherf et al.
# Submitted via: audiograbber 1.82.01
#
DISCID=6708b808
DTITLE=Najwa Karam - Maghroumeh
DYEAR=1900
DGENRE=
TTITLE0=Maghroumeh
TTITLE1=Wada3to
TTITLE2=Ghamzeh
TTITLE3=Nokta 3al Sater
TTITLE4=Mahsoubi 3layye
TTITLE5=3am Biykoulo
TTITLE6=Talet Malak
TTITLE7=El Tawbeh
EXTD=
EXTT0=
EXTT1=
EXTT2=
EXTT3=
EXTT4=
EXTT5=
EXTT6=
EXTT7=
PLAYORDER=
